<svg width="41" height="46" viewBox="0 0 41 46" fill="none" xmlns="http://www.w3.org/2000/svg">
<path d="M38.7223 13.7211L25.0557 1.74006C23.8028 0.619501 22.181 0 20.5001 0C18.8193 0 17.1974 0.619501 15.9446 1.74006L2.27798 13.7211C1.55449 14.3682 0.977151 15.1619 0.584399 16.0496C0.191648 16.9372 -0.00749969 17.8983 0.000215919 18.8689V38.7766C0.000215919 40.5889 0.720152 42.327 2.00164 43.6085C3.28314 44.8899 5.02122 45.6099 6.83352 45.6099H34.1667C35.979 45.6099 37.7171 44.8899 38.9986 43.6085C40.2801 42.327 41 40.5889 41 38.7766V18.8461C41.0045 17.8793 40.8038 16.9226 40.4112 16.0392C40.0185 15.1557 39.4429 14.3656 38.7223 13.7211ZM25.0557 41.0543H15.9446V29.6655C15.9446 29.0614 16.1846 28.482 16.6117 28.0549C17.0389 27.6277 17.6183 27.3877 18.2224 27.3877H22.7779C23.382 27.3877 23.9614 27.6277 24.3885 28.0549C24.8157 28.482 25.0557 29.0614 25.0557 29.6655V41.0543ZM36.4445 38.7766C36.4445 39.3807 36.2045 39.96 35.7774 40.3872C35.3502 40.8144 34.7708 41.0543 34.1667 41.0543H29.6112V29.6655C29.6112 27.8532 28.8913 26.1151 27.6098 24.8336C26.3283 23.5521 24.5902 22.8322 22.7779 22.8322H18.2224C16.4101 22.8322 14.672 23.5521 13.3905 24.8336C12.109 26.1151 11.3891 27.8532 11.3891 29.6655V41.0543H6.83352C6.22942 41.0543 5.65006 40.8144 5.2229 40.3872C4.79573 39.96 4.55575 39.3807 4.55575 38.7766V18.8461C4.55616 18.5227 4.62544 18.2031 4.75897 17.9085C4.8925 17.614 5.08723 17.3512 5.33019 17.1378L18.9968 5.17949C19.4125 4.81432 19.9468 4.61293 20.5001 4.61293C21.0534 4.61293 21.5878 4.81432 22.0035 5.17949L35.6701 17.1378C35.913 17.3512 36.1078 17.614 36.2413 17.9085C36.3748 18.2031 36.4441 18.5227 36.4445 18.8461V38.7766Z" fill="white"/>
</svg>
