<svg width="41" height="41" viewBox="0 0 41 41" fill="none" xmlns="http://www.w3.org/2000/svg">
<path d="M41 17.9375V23.0625H35.6423C35.2594 25.3322 34.3573 27.4167 33.0936 29.231L38.4675 33.9031L34.7689 38.4725L28.8444 33.3199C27.1189 34.441 25.1758 35.2594 23.0626 35.6171V41H17.9376V35.6423C15.8179 35.2844 13.8723 34.4587 12.1457 33.3276L6.2312 38.4726L2.53255 33.9032L7.91532 29.2211C6.66154 27.4092 5.76563 25.3297 5.38277 23.0625H0V17.9375H5.35763C5.74048 15.6678 6.64272 13.5833 7.90635 11.769L2.53247 7.09692L6.23112 2.52751L12.1556 7.68005C13.8811 6.55896 15.8242 5.74064 17.9375 5.38277V0H23.0625V5.38277C25.1758 5.74064 27.1189 6.55896 28.8443 7.68005L34.7688 2.52751L38.4674 7.09692L33.0935 11.769C34.3572 13.5833 35.2594 15.6678 35.6422 17.9375H41ZM20.5 12.8125C16.2545 12.8125 12.8125 16.2534 12.8125 20.5C12.8125 24.7466 16.2545 28.1875 20.5 28.1875C24.7454 28.1875 28.1875 24.7466 28.1875 20.5C28.1875 16.2534 24.7454 12.8125 20.5 12.8125Z" fill="white"/>
</svg>
